<svg version="1.0" xmlns="http://www.w3.org/2000/svg" viewBox="0 0 434.000000 520.000000"
 preserveAspectRatio="xMidYMid meet">
<g transform="translate(0.000000,520.000000) scale(0.100000,-0.100000)"
fill="#000000">
<path d="M1530 5070 c-47 -22 -90 -40 -97 -40 -6 0 -15 -5 -19 -12 -4 -6 -11
-158 -15 -337 -5 -221 -12 -352 -22 -406 -58 -302 -69 -371 -74 -460 -10 -176
29 -272 201 -493 98 -127 155 -223 170 -286 l7 -28 -841 7 -840 8 0 -27 0 -26
248 0 c137 0 526 -3 865 -7 l617 -6 0 36 c0 87 -61 200 -211 392 -85 110 -132
191 -155 270 -23 82 -15 210 30 445 48 251 56 330 56 575 0 116 3 233 6 260
l6 50 87 38 c47 20 95 37 106 37 71 0 117 -98 179 -380 43 -194 54 -224 159
-412 46 -84 105 -194 131 -245 l45 -91 -28 -64 c-75 -168 -67 -314 23 -423 33
-41 54 -27 84 56 20 57 22 78 19 184 -3 84 -10 139 -24 182 l-20 61 51 84 c29
45 91 139 138 208 107 156 148 238 233 465 87 232 113 296 133 318 22 25 65
21 170 -15 l94 -33 -6 -43 c-3 -24 -21 -93 -40 -153 -72 -225 -73 -312 -7
-529 54 -176 71 -271 71 -389 0 -154 -25 -219 -140 -372 -40 -52 -83 -115 -96
-141 -28 -56 -54 -148 -54 -195 0 -28 -4 -33 -23 -33 -12 0 -128 18 -257 39
-284 48 -385 57 -464 42 -113 -21 -166 -70 -166 -154 0 -93 91 -119 470 -133
107 -4 218 -10 245 -13 l50 -7 -49 -32 c-27 -17 -74 -37 -105 -43 -78 -18
-314 -14 -477 6 -239 30 -319 12 -429 -100 -143 -145 -566 -733 -1035 -1440
-269 -406 -313 -487 -296 -543 12 -36 65 -79 134 -107 79 -33 169 -91 389
-248 90 -63 187 -129 217 -146 74 -43 169 -65 227 -54 43 9 44 8 72 -30 17
-23 47 -47 75 -59 42 -19 56 -20 147 -12 127 11 541 11 990 0 257 -6 372 -5
434 4 138 19 199 62 228 160 8 30 16 56 17 57 2 2 28 -6 59 -17 68 -24 181
-26 277 -6 36 8 149 41 251 74 103 34 224 71 269 83 96 27 133 56 150 120 15
51 3 139 -31 241 -35 107 -182 393 -320 623 -72 121 -184 319 -249 440 -178
335 -296 527 -433 710 -83 110 -240 262 -317 307 -62 36 -63 38 -38 47 89 34
149 36 856 35 l702 -2 0 23 c0 22 -5 23 -92 30 -51 4 -374 5 -718 2 -666 -4
-698 -7 -800 -56 -38 -18 -51 -19 -158 -11 -64 5 -209 14 -322 20 -211 11
-278 20 -317 46 -46 30 -15 101 55 126 68 24 235 13 492 -31 129 -23 256 -41
281 -41 52 0 59 8 59 69 0 54 27 149 57 201 15 25 55 82 90 128 121 159 148
241 140 437 -5 133 -19 204 -84 405 -23 72 -27 102 -27 200 1 108 3 123 43
245 25 75 45 157 48 195 l5 65 -114 38 c-132 43 -183 47 -223 15 -33 -26 -52
-66 -151 -331 -98 -259 -119 -301 -270 -523 -68 -101 -124 -188 -124 -194 0
-21 -18 -9 -28 19 -6 16 -60 120 -121 230 -61 111 -118 217 -126 237 -8 19
-31 108 -50 197 -57 255 -96 355 -161 406 -41 32 -94 27 -194 -19z m679 -1276
c23 -100 9 -294 -21 -294 -21 0 -48 86 -48 152 0 65 33 198 50 198 4 0 12 -25
19 -56z m588 -976 c204 -124 427 -429 732 -1002 65 -122 165 -300 223 -396
201 -337 291 -511 341 -661 55 -165 45 -244 -34 -272 -97 -34 -538 -167 -588
-178 -80 -17 -207 -7 -258 19 l-43 22 0 68 c0 345 -169 1139 -376 1762 -70
212 -101 274 -136 278 -22 3 -30 -3 -45 -30 -16 -28 -18 -56 -17 -203 3 -393
125 -1049 270 -1455 50 -140 147 -327 199 -387 26 -30 45 -61 45 -75 0 -46
-23 -103 -54 -134 -57 -57 -78 -59 -521 -54 -607 7 -930 6 -1040 -3 -87 -7
-104 -6 -135 10 -19 10 -41 30 -49 44 -13 24 -12 27 30 70 81 81 145 224 187
420 53 245 193 1157 222 1450 14 137 10 313 -7 330 -20 20 -57 1 -84 -43 -56
-94 -170 -406 -254 -695 -66 -226 -148 -689 -181 -1023 -16 -157 -15 -360 2
-432 6 -25 4 -27 -37 -33 -31 -4 -63 0 -109 14 -65 21 -91 37 -432 276 -79 55
-186 121 -238 146 -113 56 -135 76 -125 118 20 93 831 1290 1169 1726 127 165
174 212 239 245 72 36 128 38 307 14 147 -19 395 -22 475 -5 70 15 126 42 175
83 42 35 70 33 147 -14z m-121 -455 c99 -236 269 -848 359 -1298 51 -255 71
-395 80 -555 l6 -115 -30 35 c-39 45 -109 180 -155 297 -133 342 -253 915
-287 1378 -10 137 -7 295 7 295 2 0 11 -17 20 -37z m-981 -293 c-33 -298 -165
-1166 -207 -1360 -41 -192 -101 -344 -166 -420 -23 -27 -33 -32 -42 -23 -18
17 -24 202 -11 353 25 285 114 826 167 1015 65 230 172 537 237 680 l32 70 3
-85 c2 -47 -4 -150 -13 -230z"/>
</g>
<style>
        path { fill: #000;  }
        @media (prefers-color-scheme: dark) {
            path { fill: #FFF; }
        }
    </style>
</svg>